# xmcd
#
# Track frame offsets:
# 150
# 13572
# 36457
# 50287
# 66657
# 84240
# 98940
# 110917
# 130287
# 152117
# 163017
# 181050
# 201552
#
# Disc length: 2908 seconds
#
#
# Revision: 0
# Processed by: cddbd v1.5.1PL0 Copyright (c) Steve Scherf et al.
# Submitted via: FreeRIP 2.90 
#
DISCID=b80b5a0d
DTITLE=Various Artist - Definiteve Blues Collection Volum 1
DYEAR=1997
DGENRE=Blues
TTITLE0=The Glory Of Love
TTITLE1=Desert Blues
TTITLE2=The Stumble
TTITLE3=Everybody Has The Blues
TTITLE4=I'm a King Bee
TTITLE5=I Ain't Gonna Let Nobody Steal My Jellyroll
TTITLE6=Bony Moroney (Popotitos)
TTITLE7=Mary Had A Little Lamb
TTITLE8=I'm Your Hoochie Coochie Man
TTITLE9=State Boro's Blues
TTITLE10=Cry Baby
TTITLE11=Things 'Bout comin My Way
TTITLE12=I'm On Your Side
EXTD=
EXTT0=
EXTT1=
EXTT2=
EXTT3=
EXTT4=
EXTT5=
EXTT6=
EXTT7=
EXTT8=
EXTT9=
EXTT10=
EXTT11=
EXTT12=
PLAYORDER=
